<?xml version="1.0" encoding="utf-8"?>
<!-- Generator: Adobe Illustrator 17.0.0, SVG Export Plug-In . SVG Version: 6.00 Build 0)  -->
<!DOCTYPE svg PUBLIC "-//W3C//DTD SVG 1.1//EN" "http://www.w3.org/Graphics/SVG/1.1/DTD/svg11.dtd">
<svg version="1.1" id="Layer_1" xmlns="http://www.w3.org/2000/svg" xmlns:xlink="http://www.w3.org/1999/xlink" x="0px" y="0px"
	 width="512px" height="512px" viewBox="0 0 512 512" enable-background="new 0 0 512 512" xml:space="preserve">
<circle fill="#FF9800" cx="256.359" cy="256.061" r="242.541"/>
<path fill="#FFFFFF" d="M255,354c41.94,0,77.4-26.28,91.98-63H163.02C177.42,327.72,213.06,354,255,354 M192,237
	c14.912,0,27-12.088,27-27s-12.088-27-27-27s-27,12.088-27,27S177.088,237,192,237 M318,237c14.912,0,27-12.088,27-27
	s-12.088-27-27-27s-27,12.088-27,27S303.088,237,318,237 M255,399c-79.529,0-144-64.471-144-144s64.471-144,144-144
	s144,64.471,144,144S334.529,399,255,399 M255,75c-99.54,0-180,81-180,180c0,99.411,80.589,180,180,180s180-80.589,180-180
	S354.411,75,255,75z"/>
</svg>
