<?xml version="1.0" encoding="utf-8"?>
<!-- Generator: Adobe Illustrator 17.0.0, SVG Export Plug-In . SVG Version: 6.00 Build 0)  -->
<!DOCTYPE svg PUBLIC "-//W3C//DTD SVG 1.1//EN" "http://www.w3.org/Graphics/SVG/1.1/DTD/svg11.dtd">
<svg version="1.1" id="Layer_1" xmlns="http://www.w3.org/2000/svg" xmlns:xlink="http://www.w3.org/1999/xlink" x="0px" y="0px"
	 width="512px" height="512px" viewBox="0 0 512 512" enable-background="new 0 0 512 512" xml:space="preserve">
<g>
	<path fill="#2196F3" d="M498.5,468.5c0,16.5-13.5,30-30,30h-425c-16.5,0-30-13.5-30-30v-425c0-16.5,13.5-30,30-30h425
		c16.5,0,30,13.5,30,30V468.5z"/>
</g>
<path fill="#FFFFFF" d="M91.364,92.364h98.182v32.727h130.909V92.364h98.182v98.182h-32.727v130.909h32.727v98.182h-98.182v-32.727
	H189.545v32.727H91.364v-98.182h32.727V190.545H91.364V92.364 M320.455,190.545v-32.727H189.545v32.727h-32.727v130.909h32.727
	v32.727h130.909v-32.727h32.727V190.545H320.455 M124.091,125.091v32.727h32.727v-32.727H124.091 M353.182,125.091v32.727h32.727
	v-32.727H353.182 M124.091,354.182v32.727h32.727v-32.727H124.091 M353.182,354.182v32.727h32.727v-32.727H353.182z"/>
</svg>
